<svg width="221" height="59" viewBox="0 0 221 59" fill="none" xmlns="http://www.w3.org/2000/svg">
<path d="M76.0725 40.8611C81.0956 24.8434 82.1208 21.4092 82.7615 19.1026C83.4022 21.4348 84.4017 24.8434 89.3992 40.8611H91.7314L98.4973 16.0528H95.9857C91.6802 32.0962 91.0395 34.6334 90.4756 37.2732C89.6811 34.5309 88.9636 32.0962 83.9404 16.0528H81.6338C76.6619 32.0706 75.8931 34.5309 75.1242 37.2988C74.5091 34.454 73.894 32.1219 69.5628 16.0528H67L73.7403 40.8611H76.0725ZM117.104 40.8099L116.873 39.0159C116.565 39.0928 116.207 39.1184 115.771 39.1184C115.181 39.1184 114.771 38.9134 114.464 38.3752C114.233 37.9395 114.182 37.145 114.182 36.2224V30.0972C114.182 28.6108 114.182 27.3293 113.823 26.1504C113.106 23.6389 111.055 22.4856 107.621 22.4856C102.598 22.4856 100.086 24.7665 100.086 28.8927L102.162 29.0208C102.316 24.9459 105.007 24.5358 107.467 24.5358C110.21 24.5358 111.183 25.7404 111.645 26.7143C111.901 27.2781 112.08 28.5851 112.08 29.8409V30.5842H109.953C105.648 30.5842 103.213 31.0967 101.701 31.9168C100.189 32.7369 99.3687 34.1465 99.3687 36.043C99.3687 39.1697 101.624 41.2712 105.75 41.2712C108.364 41.2712 111.055 40.2717 112.183 37.9395C112.311 39.7335 112.926 41.0662 115.258 41.0662C115.797 41.0662 116.565 40.9893 117.104 40.8099ZM112.08 32.3525V34.1721C112.08 34.8897 111.901 36.0174 111.465 36.7862C110.825 37.9139 109.056 39.3747 106.083 39.3747C103.828 39.3747 101.521 38.4777 101.521 35.8892C101.521 34.454 102.393 33.5058 103.649 33.0701C104.956 32.6088 107.083 32.3525 109.979 32.3525H112.08ZM122.332 40.8611V16.0528H120.179V40.8611H122.332ZM130.225 40.8611V16.0528H128.073V40.8611H130.225ZM151.471 35.4279L149.344 34.9666C148.703 37.4013 146.551 39.2722 143.321 39.2722C140.656 39.2722 136.863 37.837 136.837 32.3781H151.548C151.548 25.7916 148.421 22.4856 143.142 22.4856C138.375 22.4856 134.531 26.0223 134.531 31.8143C134.531 37.5038 137.683 41.2712 143.245 41.2712C147.627 41.2712 150.6 38.8365 151.471 35.4279ZM136.837 30.6354C137.196 26.5349 139.913 24.4846 143.116 24.4846C147.371 24.4846 148.985 27.2525 149.242 30.6354H136.837ZM163.952 40.7074L163.491 38.8878C162.978 39.0928 162.081 39.2978 161.184 39.2978C159.852 39.2978 159.185 38.734 158.903 37.837C158.724 37.2219 158.673 36.248 158.673 34.9666V24.8178H163.235V22.9469H158.673V18.1031H156.494V22.9469H153.701V24.8178H156.494V35.146C156.494 36.6068 156.52 37.6832 156.802 38.7596C157.315 40.5536 158.903 41.2712 160.697 41.2712C162.005 41.2712 163.158 41.0405 163.952 40.7074ZM179.61 40.8611V29.0208H194.321V40.8611H196.653V16.0528H194.321V26.7911H179.61V16.0528H177.355V40.8611H179.61ZM221 40.8611L215.029 29.9691C215.387 29.9178 215.669 29.7897 215.951 29.6872C218.617 28.6877 220.154 26.5349 220.154 23.1263C220.154 19.7946 218.617 17.283 215.234 16.4629C214.234 16.2066 211.928 16.0528 210.005 16.0528H202.676V40.8611H204.931V30.4816H209.877C210.826 30.4816 211.799 30.456 212.722 30.3279L218.36 40.8611H221ZM204.931 28.3032V18.2569H210.108C211.261 18.2569 213.081 18.3081 213.978 18.4619C216.413 18.9232 217.643 20.6403 217.643 23.2032C217.643 25.356 216.592 27.0474 214.9 27.6369C213.798 28.0469 211.851 28.3032 210.236 28.3032H204.931Z" fill="black"/>
<path d="M78.8941 51.1558H79.4286V57.9499H78.8941V54.7367H74.5345V57.9499H74V51.1558H74.5345V54.2514H78.8941V51.1558ZM92.5763 56.2293C92.3778 56.8078 92.0291 57.2563 91.5303 57.5749C91.0365 57.8935 90.4435 58.0529 89.7513 58.0529C89.1099 58.0529 88.5475 57.9107 88.0639 57.6264C87.5804 57.3421 87.2062 56.9352 86.9415 56.4058C86.6769 55.8764 86.5445 55.2587 86.5445 54.5529C86.5445 53.847 86.6769 53.2293 86.9415 52.6999C87.2062 52.1705 87.5804 51.7636 88.0639 51.4793C88.5475 51.195 89.1074 51.0529 89.7436 51.0529C91.1536 51.0529 92.0647 51.6117 92.477 52.7293L91.9578 52.9646C91.7899 52.4842 91.5277 52.1239 91.1714 51.8837C90.81 51.6435 90.3443 51.5234 89.7742 51.5234C89.2448 51.5234 88.7791 51.646 88.377 51.8911C87.9748 52.1362 87.6643 52.4867 87.4455 52.9426C87.2215 53.3984 87.1095 53.9352 87.1095 54.5529C87.1095 55.1705 87.219 55.7073 87.4378 56.1632C87.6567 56.619 87.9647 56.9695 88.3617 57.2146C88.7536 57.4597 89.2168 57.5823 89.7513 57.5823C90.3214 57.5823 90.8075 57.4475 91.2096 57.1779C91.6066 56.9082 91.884 56.5283 92.0418 56.0382L92.5763 56.2293ZM106.052 51.1558V57.9499H105.541V52.8837L105.602 51.6484H105.594L103.021 57.9499H102.525L99.9518 51.6484H99.9365L100.005 52.8837V57.9499H99.4937V51.1558H100.295L102.418 56.3029L102.769 57.3396H102.784L103.128 56.3102L105.251 51.1558H106.052ZM120.341 51.3666C121.67 51.3666 122.558 51.8666 123.006 52.8666L122.548 53.2269C122.369 52.7416 122.102 52.3886 121.746 52.1681C121.395 51.9475 120.931 51.8372 120.356 51.8372C119.939 51.8372 119.578 51.9009 119.272 52.0283C118.967 52.1509 118.735 52.3176 118.577 52.5283C118.414 52.744 118.333 52.9842 118.333 53.2489C118.333 53.5087 118.402 53.7244 118.539 53.896C118.671 54.0676 118.901 54.2146 119.226 54.3372C119.552 54.4548 120 54.5627 120.57 54.6607C121.486 54.8127 122.138 55.0332 122.525 55.3225C122.906 55.6068 123.097 56.0038 123.097 56.5136C123.097 56.8764 122.988 57.1999 122.769 57.4842C122.55 57.7636 122.24 57.9793 121.838 58.1313C121.43 58.2882 120.967 58.3666 120.448 58.3666C119.71 58.3666 119.086 58.2244 118.577 57.9401C118.063 57.6558 117.715 57.2563 117.531 56.7416L118.005 56.3886C118.147 56.8788 118.432 57.2514 118.86 57.5063C119.292 57.7661 119.827 57.896 120.463 57.896C121.074 57.896 121.573 57.7759 121.96 57.5357C122.352 57.2955 122.548 56.9646 122.548 56.5431C122.548 56.1803 122.387 55.8935 122.067 55.6828C121.751 55.4671 121.201 55.2955 120.417 55.1681C119.756 55.0553 119.231 54.9205 118.845 54.7636C118.463 54.6068 118.188 54.4107 118.02 54.1754C117.852 53.945 117.768 53.6533 117.768 53.3004C117.768 52.9524 117.872 52.6313 118.081 52.3372C118.29 52.0382 118.59 51.8029 118.982 51.6313C119.369 51.4548 119.822 51.3666 120.341 51.3666ZM130.656 51.4695V58.2636H130.122V51.4695H130.656ZM144.789 51.4695V58.2636H144.277V53.1975L144.338 51.9622H144.331L141.75 58.2636H141.261L138.688 51.9622H138.673L138.742 53.1975V58.2636H138.223V51.4695H139.024L141.154 56.6166L141.506 57.6533H141.521L141.857 56.6239L143.987 51.4695H144.789ZM154.699 51.4695C155.432 51.4695 156.015 51.646 156.448 51.9989C156.875 52.3519 157.089 52.8372 157.089 53.4548C157.089 54.0725 156.875 54.5602 156.448 54.9181C156.015 55.2759 155.432 55.4548 154.699 55.4548H152.89V58.2636H152.355V51.4695H154.699ZM154.63 54.9695C155.246 54.9695 155.715 54.8396 156.035 54.5798C156.361 54.32 156.524 53.945 156.524 53.4548C156.524 52.9744 156.361 52.6019 156.035 52.3372C155.715 52.0725 155.246 51.9401 154.63 51.9401H152.89V54.9695H154.63ZM164.51 57.7931H168.74V58.2636H163.976V51.4695H164.51V57.7931ZM175.971 51.4695V58.2636H175.436V51.4695H175.971ZM188.347 51.9401H184.071V54.5651H187.461V55.0504H184.071V58.2636H183.537V51.4695H188.347V51.9401ZM195.662 51.4695V58.2636H195.127V51.4695H195.662ZM203.762 57.7931H208.221V58.2636H203.228V51.4695H208.046V51.9401H203.762V54.5651H207.152V55.0504H203.762V57.7931ZM217.338 51.4695C218.463 51.4695 219.331 51.7563 219.941 52.3298C220.547 52.9033 220.85 53.7318 220.85 54.8151C220.85 55.9279 220.547 56.7808 219.941 57.3739C219.331 57.9671 218.463 58.2636 217.338 58.2636H215.116V51.4695H217.338ZM217.376 57.7931C218.318 57.7931 219.04 57.5357 219.544 57.021C220.048 56.5112 220.3 55.7759 220.3 54.8151C220.3 53.8935 220.048 53.1852 219.544 52.6901C219.04 52.1901 218.318 51.9401 217.376 51.9401H215.65V57.7931H217.376Z" fill="black"/>
<path d="M40.9224 9.04226L34.1495 0L10.4524 17.086H20.0071L40.9224 9.04226ZM47.298 17.086L44.5958 9.77786L24.3144 17.086H47.298ZM48.7202 16.1938H52.5998C53.7093 16.1938 54.4233 17.0585 54.4233 18.1646V30.55L56.1714 29.6766L56.1539 17.2332C56.1539 16.1231 54.6021 14.4106 53.492 14.4106H48.012L48.6314 16.0781L48.7202 16.1938ZM54.4233 44.8175V55.0014C55.4353 54.8939 56.2024 53.9854 56.2024 52.9459L56.189 43.9346L54.4233 44.8175ZM3.7461 16.1938H8.87838L11.3662 14.4106H5.54334L5.58365 14.3971C1.27637 14.3931 -0.0394215 14.4421 0.000893582 19.8011V56.0496C0.000893582 57.1603 1.10693 58.1057 2.21705 58.1057H50.8166C51.9261 58.1057 53.0415 57.1913 53.0415 56.0858L53.0374 46.4067L52.823 46.5136H48.3643C44.4228 46.5136 41.2298 43.3212 41.2298 39.3796C41.2298 35.4381 44.4228 32.2462 48.3643 32.2462H52.823L53.0321 32.1387L53.0275 19.9928C53.0275 18.8826 51.9261 17.9776 50.8166 17.9776H5.53925C5.39137 17.9758 5.24378 17.9639 5.09753 17.942H4.00026C3.76408 17.941 3.53783 17.8468 3.37082 17.6798C3.20381 17.5128 3.10958 17.2865 3.10866 17.0503C3.10767 16.8578 3.16931 16.6701 3.28429 16.5156C3.39927 16.3611 3.56135 16.2482 3.7461 16.1938ZM52.823 34.0282H48.3643C47.6616 34.0279 46.9657 34.1661 46.3165 34.4349C45.6672 34.7036 45.0772 35.0977 44.5803 35.5946C44.0834 36.0914 43.6892 36.6814 43.4204 37.3306C43.1516 37.9799 43.0133 38.6757 43.0135 39.3785C43.0134 40.0812 43.1517 40.777 43.4206 41.4262C43.6894 42.0754 44.0835 42.6653 44.5804 43.1622C45.0774 43.659 45.6673 44.0531 46.3165 44.3219C46.9658 44.5907 47.6617 44.7289 48.3643 44.7287H52.823L56.1755 41.9154L56.1621 31.2862L52.823 34.0282ZM45.6889 39.3785C45.6897 38.6692 45.9719 37.9893 46.4735 37.4879C46.9751 36.9866 47.6551 36.7047 48.3643 36.7042C49.0735 36.7047 49.7535 36.9866 50.255 37.488C50.7565 37.9894 51.0385 38.6693 51.0392 39.3785C51.0385 40.0877 50.7566 40.7678 50.2551 41.2694C49.7536 41.7709 49.0736 42.0531 48.3643 42.0539C47.6548 42.0537 46.9744 41.7718 46.4727 41.2701C45.971 40.7684 45.6891 40.088 45.6889 39.3785Z" fill="url(#paint0_linear)"/>
<path d="M35 34L31.0912 45H28.8266L26.5155 38.4L24.1734 45H21.8932L18 34H20.9005L23.1651 40.9745L25.6159 34H27.5858L29.9279 41.0993L32.3011 34H35Z" fill="white"/>
<defs>
<linearGradient id="paint0_linear" x1="-0.0836167" y1="0.377171" x2="50.8531" y2="24.1293" gradientUnits="userSpaceOnUse">
<stop stop-color="#0015D6"/>
<stop offset="1" stop-color="#0989FB"/>
</linearGradient>
</defs>
</svg>
